<svg width="264" height="248" viewBox="0 0 264 248" fill="none" xmlns="http://www.w3.org/2000/svg">
<path fill-rule="evenodd" clip-rule="evenodd" d="M91.5 169C133.75 169 168 134.75 168 92.5C168 59.5008 147.106 31.3817 117.826 20.6502C121.491 20.2208 125.22 20 129 20C181.467 20 224 62.5329 224 115C224 167.467 181.467 210 129 210C88.6934 210 54.2497 184.898 40.4486 149.475C53.989 161.616 71.8821 169 91.5 169Z" fill="#FFF44F"/>
<path d="M59.4486 20L68.6794 34.8464L85.6515 39.0375L74.3843 52.4043L75.6429 69.8409L59.4486 63.2557L43.2543 69.8409L44.5129 52.4043L33.2457 39.0375L50.2179 34.8464L59.4486 20Z" fill="#FFF44F"/>
<path d="M241.949 0L247.962 9.67179L259.019 12.4022L251.679 21.1101L252.498 32.4693L241.949 28.1793L231.399 32.4693L232.219 21.1101L224.878 12.4022L235.935 9.67179L241.949 0Z" fill="#FFF44F"/>
<path d="M17.8458 205.5L23.709 214.93L34.4893 217.592L27.3326 226.082L28.1321 237.158L17.8458 232.975L7.55958 237.158L8.35904 226.082L1.20234 217.592L11.9827 214.93L17.8458 205.5Z" fill="#FFF44F"/>
<path d="M232.5 185.949L242.736 202.412L261.556 207.059L249.062 221.881L250.458 241.217L232.5 233.914L214.542 241.217L215.938 221.881L203.444 207.059L222.264 202.412L232.5 185.949Z" fill="#FFF44F"/>
</svg>
