<svg width="227" height="179" viewBox="0 0 227 179" fill="none" xmlns="http://www.w3.org/2000/svg">
<path d="M158.025 119.892C153.544 120.617 149.458 122.615 146.493 125.582C142.978 129.096 140.87 133.687 140.43 138.805L140.276 140.474L138.036 140.606C133.884 140.869 129.183 142.495 125.955 144.801C123.341 146.668 120.53 150.051 119.321 152.753C118.223 155.257 117.828 157.145 117.828 159.979C117.828 168.217 121.891 174.85 128.634 177.574C132.104 178.98 128.876 178.87 170.852 178.87H208.962L210.917 178.343C221.285 175.619 227.589 167.074 226.447 157.409C225.897 152.906 224.228 149.194 221.307 146.097C217.814 142.407 214.08 140.649 208.478 140.035L206.15 139.77L205.25 138.232C203.998 136.124 200.857 133.027 198.573 131.665C192.972 128.348 185.877 127.843 180.231 130.369C179.485 130.721 178.87 130.874 178.825 130.742C178.496 129.753 176.805 127.403 175.355 125.909C172.543 123.031 169.226 121.143 165.317 120.219C163.56 119.804 159.716 119.628 158.025 119.892Z" fill="white"/>
<path d="M40.6177 0.252708C36.1366 0.977352 32.0507 2.97595 29.0855 5.94222C25.571 9.4567 23.4626 14.0476 23.0231 19.1656L22.8689 20.8346L20.6283 20.9667C16.4769 21.2297 11.7761 22.8554 8.54797 25.1614C5.93348 27.029 3.12257 30.4115 1.91409 33.1136C0.815469 35.6171 0.42041 37.5059 0.42041 40.3401C0.42041 48.5775 4.48419 55.2103 11.2268 57.9346C14.6969 59.3406 11.4687 59.2308 53.4449 59.2308H91.5548L93.5101 58.7037C103.878 55.9793 110.181 47.4345 109.039 37.77C108.49 33.2668 106.821 29.5548 103.899 26.4575C100.407 22.7677 96.6728 21.0099 91.0709 20.3952L88.7427 20.1311L87.8427 18.593C86.591 16.4845 83.4494 13.3873 81.1656 12.0257C75.5648 8.70874 68.4693 8.20382 62.8242 10.7295C62.0774 11.0813 61.4626 11.2345 61.4182 11.1024C61.0886 10.1136 59.3974 7.76327 57.9481 6.26959C55.1361 3.3921 51.8191 1.50336 47.9096 0.580075C46.1529 0.165041 42.3089 -0.0114048 40.6177 0.252708Z" fill="white"/>
<circle cx="113.5" cy="89.5" r="80.1986" fill="#FFF44F"/>
</svg>
