<svg xmlns="http://www.w3.org/2000/svg" fill="none" viewBox="0 0 257 266">
  <g filter="url(#filter0_d)">
    <circle cx="127" cy="132" r="63" fill="#fff"/>
  </g>
  <path fill="#F2F2F2" d="M127.805 83.0478l7.308 32.3552 28.047-17.7105-17.711 28.0465 32.356 7.309-32.356 7.308 17.711 28.047-28.047-17.711-7.308 32.356-7.309-32.356-28.0467 17.711 17.7107-28.047-32.3553-7.308 32.3553-7.309-17.7107-28.0465 28.0467 17.7105 7.309-32.3552z"/>
  <path fill="#5B55FF" d="M153.969 189.031c-2.532 1.25-13.063 5.469-22.969 5.875 11.11 31.014 40.406 41.736 53.13 37.136C228.5 216 125.25 10.25 69.935 35.1167c-20.2888 9.8885-1.3831 53.426 2.1586 65.9143 3.9375-7.6873 13.3438-17.2497 18-20.0622C87.5 74.25 84.6249 62.75 84.6249 57.8751 125.875 86.2501 171.406 192.75 171.406 210.031c-8.156-7.281-17.437-19.562-17.437-21z"/>
  <path fill="#5B55FF" d="M189.359 141c-1.718 12.562-7.593 22.25-8.64 23.969 18.281 0 75.817-9.719 75.817-32.469C252 84.5 3.34255 82.2241.8125 132.5c.4375 23.563 38.1976 30.437 67.125 32.75 2.0733.166 3.5625-1.75 2.75-5.172-1.3125-2.109-4.4843-8.937-6.0781-19.094-10.5-1.166-32.4093-4.184-33.6093-6.984C64.5001 115 196 120.75 224.5 134c2.758 1.282-31.641 8-35.141 7z"/>
  <path fill="#5B55FF" d="M183.203 103.656c-3.812-8.4372-14.297-18.9294-18.078-21.8122C172.625 67.8438 183 44.25 183 38 130.5 87.5 72.5 226.25 72.5 230c9.8334-11.167 29.584-34.753 29.984-39.953 11.125 4.812 21.969 5.156 28.524 4.812C102.008 244.359 75 272 52.5 264 6.24992 249.25 147.834-17.5497 200.199 1.71002 235.23 14.5948 197.209 87.65 183.203 103.656z"/>
  <defs>
    <filter id="filter0_d" width="158" height="158" x="48" y="60" color-interpolation-filters="sRGB" filterUnits="userSpaceOnUse">
      <feFlood flood-opacity="0" result="BackgroundImageFix"/>
      <feColorMatrix in="SourceAlpha" values="0 0 0 0 0 0 0 0 0 0 0 0 0 0 0 0 0 0 127 0"/>
      <feOffset dy="7"/>
      <feGaussianBlur stdDeviation="8"/>
      <feColorMatrix values="0 0 0 0 0 0 0 0 0 0 0 0 0 0 0 0 0 0 0.39 0"/>
      <feBlend in2="BackgroundImageFix" mode="darken" result="effect1_dropShadow"/>
      <feBlend in="SourceGraphic" in2="effect1_dropShadow" result="shape"/>
    </filter>
  </defs>
</svg>