<?xml version="1.0" standalone="no"?>
<!DOCTYPE svg PUBLIC "-//W3C//DTD SVG 20010904//EN"
 "http://www.w3.org/TR/2001/REC-SVG-20010904/DTD/svg10.dtd">
<svg version="1.0" xmlns="http://www.w3.org/2000/svg"
 width="622.000000pt" height="622.000000pt" viewBox="0 0 622.000000 622.000000"
 preserveAspectRatio="xMidYMid meet">
<metadata>
Created by potrace 1.11, written by Peter Selinger 2001-2013
</metadata>
<g transform="translate(0.000000,622.000000) scale(0.100000,-0.100000)"
fill="#000000" stroke="none">
<path d="M2240 5978 c-52 -23 -148 -106 -185 -159 -32 -45 -89 -189 -101 -254
-3 -16 -7 -34 -8 -40 -4 -17 -16 -99 -19 -130 -2 -17 -5 -35 -8 -40 -7 -14 -3
-342 5 -445 6 -82 9 -108 22 -215 3 -27 7 -63 8 -80 2 -16 6 -39 9 -50 3 -11
8 -46 12 -77 3 -31 7 -63 10 -70 2 -7 6 -29 9 -48 3 -19 9 -56 14 -82 l9 -48
-66 5 c-36 3 -77 7 -91 10 -14 3 -56 8 -95 10 -38 3 -92 8 -120 11 -114 12
-489 18 -605 10 -50 -4 -167 -17 -190 -21 -8 -1 -35 -6 -60 -10 -60 -9 -198
-44 -235 -59 -16 -7 -46 -19 -65 -26 -19 -8 -37 -16 -40 -19 -3 -3 -21 -15
-41 -26 -98 -54 -175 -155 -196 -255 -20 -94 15 -236 83 -339 132 -198 471
-424 914 -608 19 -8 44 -19 55 -24 50 -21 201 -81 215 -84 8 -2 33 -11 55 -21
22 -10 49 -19 59 -21 11 -2 25 -8 31 -13 7 -5 15 -7 18 -3 4 3 7 3 7 -2 0 -5
-11 -20 -25 -34 -24 -25 -101 -121 -137 -172 -10 -13 -36 -49 -58 -79 -22 -30
-43 -59 -47 -65 -4 -5 -37 -55 -72 -110 -35 -55 -72 -111 -81 -125 -10 -14
-20 -35 -24 -48 -4 -12 -12 -22 -17 -22 -5 0 -9 -6 -9 -13 0 -7 -11 -28 -24
-47 -13 -19 -27 -46 -31 -60 -4 -14 -11 -27 -16 -30 -4 -3 -31 -57 -59 -120
-29 -63 -58 -128 -65 -145 -22 -47 -73 -209 -79 -250 -4 -21 -8 -40 -11 -44
-3 -6 -14 -106 -17 -156 -3 -40 16 -143 33 -182 29 -69 62 -107 116 -138 106
-59 264 -66 433 -19 30 8 62 17 70 19 76 20 357 151 447 208 24 15 45 27 49
27 22 0 513 343 600 420 20 17 42 29 50 26 8 -3 13 -2 13 2 -1 4 -1 14 0 22 2
27 19 -4 64 -120 69 -177 147 -344 244 -518 35 -62 63 -115 63 -118 0 -3 4
-10 10 -17 5 -7 44 -64 86 -127 69 -104 132 -187 174 -231 99 -105 148 -153
172 -167 15 -9 28 -20 28 -24 0 -4 6 -8 14 -8 8 0 16 -3 18 -7 12 -28 144 -74
221 -79 87 -4 140 19 217 96 60 60 84 97 134 210 20 46 56 175 61 220 3 19 7
48 11 65 33 147 44 622 20 845 -10 92 -19 196 -20 232 -1 21 -3 38 -6 38 -3 0
-5 12 -5 26 1 14 -1 46 -5 71 l-7 45 36 -6 c20 -3 46 -8 57 -10 28 -6 77 -13
144 -21 30 -4 67 -9 82 -11 233 -37 772 -36 944 1 12 3 38 7 60 11 76 12 210
55 284 92 92 45 187 137 212 205 15 42 18 142 5 187 -9 31 -27 76 -43 105 -9
17 -23 42 -31 58 -8 15 -18 27 -23 27 -5 0 -11 8 -14 18 -11 34 -248 262 -273
262 -6 0 -13 7 -17 15 -3 8 -10 15 -16 15 -6 0 -16 5 -23 10 -55 47 -74 60
-84 60 -6 0 -13 4 -15 8 -2 7 -136 89 -278 172 -23 14 -364 184 -370 185 -3 1
-21 8 -40 17 -19 9 -73 32 -120 53 -47 21 -86 41 -88 46 -2 4 -10 5 -18 2 -8
-3 -14 0 -14 6 0 6 5 11 10 11 6 0 10 7 10 15 0 9 7 18 15 21 8 4 12 10 9 15
-3 5 0 9 5 9 6 0 11 6 11 14 0 8 3 16 8 18 11 5 152 215 152 226 0 6 3 12 8
14 10 4 92 137 92 149 0 5 5 9 10 9 6 0 10 4 10 10 0 5 29 61 65 125 36 64 65
118 65 120 0 2 13 32 29 67 49 107 68 151 86 203 9 28 20 57 23 65 3 8 6 20 7
25 2 6 13 46 25 90 26 96 36 283 19 353 -48 196 -200 304 -420 297 -46 -2
-104 -8 -129 -14 -25 -7 -54 -14 -66 -16 -40 -9 -197 -76 -268 -114 -100 -54
-254 -147 -266 -160 -3 -3 -34 -26 -70 -50 -36 -25 -67 -48 -70 -51 -3 -3 -34
-28 -70 -55 -36 -27 -103 -81 -150 -120 -112 -93 -124 -103 -167 -142 -19 -18
-38 -33 -42 -33 -4 0 -20 30 -35 68 -58 133 -195 409 -263 527 -38 66 -76 131
-84 145 -8 14 -16 27 -19 30 -3 3 -34 47 -69 99 -36 52 -72 102 -80 112 -9 9
-38 43 -66 74 -27 32 -70 77 -94 99 -25 23 -53 49 -63 59 -10 9 -20 17 -23 17
-3 0 -27 16 -55 36 -27 20 -50 33 -50 29 0 -4 -15 2 -32 13 -42 26 -133 44
-198 40 -28 -2 -78 -15 -110 -30z m270 -734 c92 -112 218 -332 309 -536 38
-85 42 -98 28 -99 -37 -2 -217 -50 -264 -70 -24 -10 -43 -16 -43 -12 0 3 -7 0
-15 -7 -23 -19 -27 -12 -39 85 -7 54 -15 113 -20 150 -5 34 -16 129 -22 189
-12 121 -13 328 -2 346 14 21 13 22 68 -46z m2050 -524 c-39 -106 -87 -205
-150 -309 -27 -46 -50 -88 -50 -93 0 -4 -4 -8 -10 -8 -5 0 -10 -7 -10 -15 0
-8 -4 -15 -10 -15 -5 0 -10 -7 -10 -15 0 -8 -4 -15 -10 -15 -5 0 -10 -6 -10
-12 0 -7 -11 -26 -25 -42 -14 -16 -25 -32 -25 -35 -1 -3 -9 -16 -20 -29 l-19
-23 -25 24 c-14 14 -22 28 -19 31 4 3 1 6 -6 6 -18 0 -62 51 -54 63 3 6 1 7
-6 3 -7 -5 -21 2 -34 16 -12 13 -40 37 -62 53 -81 61 -79 53 -22 98 29 22 54
43 57 47 19 24 328 252 418 309 58 37 125 64 130 52 1 -4 -11 -45 -28 -91z
m-3180 -1005 c144 -6 205 -11 205 -15 0 -3 68 -10 93 -10 26 0 27 -8 7 -56
-15 -36 -15 -37 -15 -55 0 -8 -6 -7 -17 2 -16 13 -17 12 -5 -3 11 -13 10 -28
-2 -82 -9 -36 -18 -81 -22 -99 -3 -17 -7 -39 -9 -47 -2 -8 -4 -19 -4 -23 -1
-5 -13 -1 -28 7 -16 8 -62 28 -103 45 -41 16 -93 37 -115 47 -22 10 -42 18
-45 19 -29 9 -267 124 -330 161 -49 28 -97 70 -89 79 11 10 116 25 208 30 52
3 97 7 99 10 3 2 8 3 11 1 3 -2 76 -7 161 -11z m3205 -834 c17 -8 39 -17 50
-22 193 -79 464 -218 576 -296 58 -40 74 -59 57 -65 -19 -6 -247 -2 -358 6
-52 5 -117 10 -145 12 -89 7 -200 20 -200 24 0 2 -37 8 -80 13 -13 1 -27 6
-31 9 -5 6 20 94 43 148 9 21 10 27 12 51 1 15 6 19 17 15 14 -5 15 -4 5 8 -7
8 -10 24 -6 36 3 11 8 32 10 48 2 15 4 28 4 30 1 2 4 2 9 0 4 -2 21 -10 37
-17z m-2649 -683 c-7 -5 -4 -8 7 -8 10 0 15 -4 12 -10 -3 -5 1 -10 10 -10 9 0
13 -4 10 -10 -3 -5 1 -10 9 -10 14 0 20 -12 17 -32 0 -5 2 -7 7 -7 27 5 35 -2
17 -15 -18 -13 -18 -14 9 -9 24 5 28 3 23 -10 -4 -10 -2 -16 6 -14 7 1 11 -3
10 -10 -2 -8 4 -10 14 -6 11 4 14 3 9 -5 -4 -7 -1 -12 8 -12 8 0 23 -11 34
-25 11 -13 22 -21 26 -18 3 3 6 2 6 -3 0 -5 -22 -25 -48 -44 -26 -19 -60 -47
-77 -62 -16 -16 -36 -28 -42 -28 -7 0 -13 -4 -13 -8 0 -33 -498 -347 -518
-327 -19 19 338 607 385 634 8 4 16 12 16 17 1 5 7 8 12 6 6 -2 7 0 2 4 -4 4
2 18 14 30 17 18 24 20 34 11 9 -9 10 -14 1 -19z m1675 -460 c1 -13 2 -35 3
-50 0 -16 3 -28 6 -28 3 0 6 -20 8 -44 1 -24 5 -54 7 -67 19 -93 28 -599 12
-616 -8 -7 -23 8 -54 53 -23 31 -195 369 -227 444 -10 25 -29 68 -42 97 -12
28 -20 54 -16 57 3 3 0 6 -6 6 -7 0 -12 9 -12 21 0 11 -5 29 -10 40 -14 25 -3
44 15 29 8 -7 15 -7 19 -1 4 5 21 9 38 9 18 -1 34 4 36 11 3 9 10 7 23 -5 16
-15 19 -15 14 -2 -5 11 1 17 22 20 15 3 37 9 47 13 15 7 18 5 12 -6 -4 -8 -1
-6 8 5 8 10 22 16 31 13 8 -4 15 -2 15 3 0 7 17 15 43 19 4 0 8 -9 8 -21z"/>
<path d="M4550 2860 c0 -5 5 -10 11 -10 5 0 7 5 4 10 -3 6 -8 10 -11 10 -2 0
-4 -4 -4 -10z"/>
<path d="M4486 2642 c-3 -5 1 -9 9 -9 8 0 12 4 9 9 -3 4 -7 8 -9 8 -2 0 -6 -4
-9 -8z"/>
<path d="M1970 2079 c0 -5 5 -7 10 -4 6 3 10 8 10 11 0 2 -4 4 -10 4 -5 0 -10
-5 -10 -11z"/>
<path d="M2017 2055 c-4 -8 -3 -16 1 -19 4 -3 9 4 9 15 2 23 -3 25 -10 4z"/>
<path d="M2020 1980 c-9 -6 -10 -10 -3 -10 6 0 15 5 18 10 8 12 4 12 -15 0z"/>
<path d="M3459 1693 c-13 -16 -12 -17 4 -4 9 7 17 15 17 17 0 8 -8 3 -21 -13z"/>
<path d="M3500 1686 c0 -2 8 -10 18 -17 15 -13 16 -12 3 4 -13 16 -21 21 -21
13z"/>
<path d="M3320 1635 c-11 -13 -11 -18 0 -28 10 -9 11 -9 6 1 -4 7 -2 19 4 27
7 8 10 15 7 15 -2 0 -10 -7 -17 -15z"/>
<path d="M3505 1640 c-3 -6 1 -7 9 -4 18 7 21 14 7 14 -6 0 -13 -4 -16 -10z"/>
</g>
</svg>
